<svg xmlns="http://www.w3.org/2000/svg" xmlns:xlink="http://www.w3.org/1999/xlink" viewBox="0 0 442.12 141.26"><defs><style>.cls-1{fill:none;}.cls-2{clip-path:url(#clip-path);}.cls-3{fill:#ef5a70;}.cls-4{fill:#ed1b25;}.cls-5{fill:#faba1c;}.cls-6{fill:#009e4f;}.cls-7{fill:#00aded;}.cls-8{fill:#c6569e;}.cls-9{fill:#d5d5d7;}.cls-10,.cls-11,.cls-12,.cls-13,.cls-14,.cls-9{fill-rule:evenodd;}.cls-10{fill:#5f5f5f;}.cls-11,.cls-15{fill:#434443;}.cls-12{fill:#22201e;}.cls-13{fill:#babcbe;}.cls-14{fill:#fefefe;}</style><clipPath id="clip-path" transform="translate(-35.27 -37.34)"><rect class="cls-1" width="204.22" height="188.34"/></clipPath></defs><g id="Capa_2" data-name="Capa 2"><g id="Capa_1-2" data-name="Capa 1"><g id="Capa_2-2" data-name="Capa 2"><g id="_5" data-name=" 5"><g class="cls-2"><path class="cls-3" d="M126.92,65.57l24.89-11.31A71.11,71.11,0,0,0,91.86,38.71L89.21,63.84A47.49,47.49,0,0,1,126.92,65.57Z" transform="translate(-35.27 -37.34)"/><path class="cls-4" d="M79.9,68.64l.06,0L82.57,41c-1.93.7-3.86,1.44-5.79,2.31a70.65,70.65,0,0,0-38,42.55l20.59,14.75C61.14,88.5,67.66,76.87,79.9,68.64Z" transform="translate(-35.27 -37.34)"/><path class="cls-5" d="M59,110.85,36.51,94.74a70.63,70.63,0,0,0-1.24,13.14V108a70.24,70.24,0,0,0,6.31,29.1A71.39,71.39,0,0,0,53.5,155.23l22.87-10.38A48.86,48.86,0,0,1,59,110.85Z" transform="translate(-35.27 -37.34)"/><path class="cls-6" d="M131.8,147.76l-2.83,27c2.16-.74,4.32-1.58,6.42-2.54a70.59,70.59,0,0,0,38.4-43.81l-21-14.43A48.1,48.1,0,0,1,131.8,147.76Z" transform="translate(-35.27 -37.34)"/><path class="cls-7" d="M85,150.38l-24.83,11.3a71.06,71.06,0,0,0,59.93,15.54l2.63-24.9a48,48,0,0,1-16.62,2.87A47.23,47.23,0,0,1,85,150.38Z" transform="translate(-35.27 -37.34)"/><path class="cls-8" d="M170.55,78.5A71.48,71.48,0,0,0,159,60.74L135.84,71.28a45.57,45.57,0,0,1,17.33,32.63l22.75,15.64A70.3,70.3,0,0,0,170.55,78.5Z" transform="translate(-35.27 -37.34)"/><path class="cls-9" d="M86.29,78.25C56.93,98,71,143.65,106.09,143.65S155.26,98,125.88,78.25a35.73,35.73,0,0,0-39.59,0Z" transform="translate(-35.27 -37.34)"/><path class="cls-10" d="M90.29,84.25c-23.42,15.73-12.18,52.19,15.8,52.19S145.32,100,121.88,84.25A28.54,28.54,0,0,0,90.29,84.25Z" transform="translate(-35.27 -37.34)"/><path class="cls-11" d="M92.16,87c-20.68,13.88-10.75,46.05,13.92,46.05S140.69,100.94,120,87a25.16,25.16,0,0,0-27.86,0Z" transform="translate(-35.27 -37.34)"/><path class="cls-12" d="M98.35,96.35c-11.46,7.7-6,25.53,7.74,25.53s19.2-17.83,7.73-25.53A14,14,0,0,0,98.35,96.35Z" transform="translate(-35.27 -37.34)"/><path class="cls-13" d="M97.28,103.25a6.59,6.59,0,1,1,7.32,0A6.6,6.6,0,0,1,97.28,103.25Z" transform="translate(-35.27 -37.34)"/><path class="cls-14" d="M112.32,121.73a3.24,3.24,0,1,1,3.59,0A3.24,3.24,0,0,1,112.32,121.73Z" transform="translate(-35.27 -37.34)"/></g><path class="cls-15" d="M219,109.52v15.61H207.92v-46h18.35a21.35,21.35,0,0,1,9.34,2,14.66,14.66,0,0,1,6.28,5.52,15.09,15.09,0,0,1,2.23,8.14,13.35,13.35,0,0,1-4.82,10.78q-4.81,4-13.22,4Zm0-8.56h7.26a6.89,6.89,0,0,0,4.92-1.61,6,6,0,0,0,1.7-4.54,7.36,7.36,0,0,0-1.74-5.14,6.13,6.13,0,0,0-4.73-2H219Z" transform="translate(-35.27 -37.34)"/><path class="cls-15" d="M259.94,94.61a10.64,10.64,0,0,1,8.72-4.29q5.67,0,8.51,3.34t2.94,9.89V125.1H269.46V103.81a5.86,5.86,0,0,0-1.13-4,4.77,4.77,0,0,0-3.76-1.28q-3.29,0-4.64,2.09v24.51H249.3V76.58h10.64Z" transform="translate(-35.27 -37.34)"/><path class="cls-15" d="M284.71,107.72a20.08,20.08,0,0,1,2-9.11,14.18,14.18,0,0,1,5.71-6.14,17.28,17.28,0,0,1,8.75-2.15q7.68,0,12.1,4.76T317.69,108v.38q0,8-4.44,12.68t-12,4.69q-7.31,0-11.72-4.38t-4.77-11.86Zm10.64.66c0,3.16.5,5.47,1.49,7a4.94,4.94,0,0,0,4.39,2.21q5.67,0,5.81-8.75v-1.07q0-9.19-5.88-9.19-5.32,0-5.77,7.94Z" transform="translate(-35.27 -37.34)"/><path class="cls-15" d="M334.77,82.45V91h5.6v7.37h-5.62V114a4,4,0,0,0,.69,2.68,3.7,3.7,0,0,0,2.75.76,15.61,15.61,0,0,0,2.65-.19v7.61a19.36,19.36,0,0,1-6,.92c-3.67,0-6.37-.86-8.12-2.59s-2.62-4.35-2.63-7.86v-17h-4.35V91h4.35V82.45Z" transform="translate(-35.27 -37.34)"/><path class="cls-15" d="M342.29,107.72a20.08,20.08,0,0,1,2-9.11A14.19,14.19,0,0,1,350,92.47a17.22,17.22,0,0,1,8.74-2.15q7.68,0,12.1,4.76T375.28,108v.38q0,8-4.43,12.68t-12,4.69q-7.31,0-11.72-4.37t-4.77-11.86Zm10.64.66c0,3.16.5,5.47,1.49,7a5,5,0,0,0,4.39,2.21q5.67,0,5.81-8.75v-1.07q0-9.19-5.87-9.19-5.34,0-5.78,7.94Z" transform="translate(-35.27 -37.34)"/><path class="cls-15" d="M408.56,102.51H385v22.62h-1.71v-46h28.5v1.7H385v19.9h23.56Z" transform="translate(-35.27 -37.34)"/><path class="cls-15" d="M416.17,107.37a20.07,20.07,0,0,1,1.88-8.79,14.48,14.48,0,0,1,5.31-6.08,14.68,14.68,0,0,1,20.83,5.94,19.88,19.88,0,0,1,1.94,8.74v1.52a20.14,20.14,0,0,1-1.86,8.81,14.36,14.36,0,0,1-5.3,6.07,15,15,0,0,1-15.5,0,14.41,14.41,0,0,1-5.38-6,19.86,19.86,0,0,1-1.92-8.7Zm1.71,1.33a17.92,17.92,0,0,0,1.7,7.82,13.31,13.31,0,0,0,4.71,5.54,12.2,12.2,0,0,0,6.89,2,11.86,11.86,0,0,0,9.53-4.39q3.68-4.39,3.68-11.31v-1a17.68,17.68,0,0,0-1.7-7.77A13.5,13.5,0,0,0,438,94a12.08,12.08,0,0,0-6.83-2,11.85,11.85,0,0,0-9.54,4.45,17,17,0,0,0-3.7,11.22Z" transform="translate(-35.27 -37.34)"/><path class="cls-15" d="M463.71,106.11,474.61,91h2.14l-12,16.64,12.64,17.54h-2.12l-11.59-16-11.55,16H450l12.64-17.54L450.64,91h2.15Z" transform="translate(-35.27 -37.34)"/><path class="cls-15" d="M281,150.14h-8.61v8.62h-1.55V140.32h11.42v1.31h-9.87v7.19H281Z" transform="translate(-35.27 -37.34)"/><path class="cls-15" d="M299,150.54a10.76,10.76,0,0,1-.88,4.48,6.75,6.75,0,0,1-2.51,3,7,7,0,0,1-3.78,1,6.61,6.61,0,0,1-5.22-2.31,9.26,9.26,0,0,1-2-6.24v-1.9a10.58,10.58,0,0,1,.9-4.47,6.64,6.64,0,0,1,6.29-4,7,7,0,0,1,3.75,1,6.75,6.75,0,0,1,2.52,2.9,10.52,10.52,0,0,1,.92,4.35Zm-1.56-2a8.19,8.19,0,0,0-1.5-5.22,5.44,5.44,0,0,0-7.67-.57,6,6,0,0,0-.56.57,8.21,8.21,0,0,0-1.53,5.29v1.93a8.11,8.11,0,0,0,1.52,5.2,5.42,5.42,0,0,0,8.26,0,8.35,8.35,0,0,0,1.48-5.28Z" transform="translate(-35.27 -37.34)"/><path class="cls-15" d="M315.14,141.63h-6.32v17.13h-1.56V141.63H301v-1.31h14.18Z" transform="translate(-35.27 -37.34)"/><path class="cls-15" d="M331.39,150.54a10.46,10.46,0,0,1-.88,4.48,6.69,6.69,0,0,1-2.51,3,7,7,0,0,1-3.78,1,6.61,6.61,0,0,1-5.22-2.31,9.3,9.3,0,0,1-2-6.24v-1.9a10.62,10.62,0,0,1,.89-4.48,6.65,6.65,0,0,1,6.29-4,6.89,6.89,0,0,1,3.75,1,6.69,6.69,0,0,1,2.52,2.9,10.36,10.36,0,0,1,.92,4.35Zm-1.55-2a8.13,8.13,0,0,0-1.51-5.22,5.44,5.44,0,0,0-7.67-.57,6,6,0,0,0-.56.57,8.27,8.27,0,0,0-1.53,5.29v1.93a8.17,8.17,0,0,0,1.52,5.2,5,5,0,0,0,4.13,1.92,4.94,4.94,0,0,0,4.13-1.9,8.29,8.29,0,0,0,1.49-5.28Z" transform="translate(-35.27 -37.34)"/><path class="cls-15" d="M348.64,156.57a5.29,5.29,0,0,1-2.54,1.8,11.08,11.08,0,0,1-3.87.65,7.23,7.23,0,0,1-3.85-1,6.87,6.87,0,0,1-2.61-2.94,10.08,10.08,0,0,1-.95-4.36v-2.33a8.91,8.91,0,0,1,1.94-6.06,6.61,6.61,0,0,1,5.21-2.23,6.93,6.93,0,0,1,4.59,1.46,6,6,0,0,1,2.06,4h-1.55a4.86,4.86,0,0,0-1.66-3.09,5.26,5.26,0,0,0-3.4-1,5,5,0,0,0-4.09,1.83,8,8,0,0,0-1.51,5.19v2.18a9.13,9.13,0,0,0,.71,3.72,5.67,5.67,0,0,0,2.06,2.51,5.46,5.46,0,0,0,3.07.88,8.56,8.56,0,0,0,3.46-.63,3.78,3.78,0,0,0,1.39-1V151.3h-5V150h6.51Z" transform="translate(-35.27 -37.34)"/><path class="cls-15" d="M360,151.07h-5.36v7.69H353V140.32h6a6.84,6.84,0,0,1,4.61,1.43,5.45,5.45,0,0,1,.62,7.12,5.33,5.33,0,0,1-2.79,1.88l4.62,7.85v.16h-1.66Zm-5.36-1.31h4.78a4.4,4.4,0,0,0,3.15-1.13,4.23,4.23,0,0,0,0-5.93,5.2,5.2,0,0,0-3.48-1.08h-4.4Z" transform="translate(-35.27 -37.34)"/><path class="cls-15" d="M379.48,153.58h-8.37l-1.9,5.18H367.6l7-18.44h1.49l7,18.44h-1.62Zm-7.91-1.31H379l-3.7-10.05Z" transform="translate(-35.27 -37.34)"/><path class="cls-15" d="M395.89,150.14h-8.6v8.62h-1.53V140.32h11.42v1.31h-9.89v7.19h8.6Z" transform="translate(-35.27 -37.34)"/><path class="cls-15" d="M403,135.24h1.84l-2.93,3.55h-1.33Zm-.76,23.52h-1.56V140.32h1.56Z" transform="translate(-35.27 -37.34)"/><path class="cls-15" d="M417.41,153.58H409l-1.9,5.18h-1.63l7-18.44h1.48l7,18.44h-1.62Zm-7.89-1.31h7.37l-3.69-10.05Z" transform="translate(-35.27 -37.34)"/></g></g></g></g></svg>