<svg xmlns="http://www.w3.org/2000/svg" xmlns:xlink="http://www.w3.org/1999/xlink" viewBox="0 0 1054.53 800"><defs><style>.cls-1{fill:none;}.cls-2{clip-path:url(#clip-path);}.cls-10,.cls-3{fill:#fefefe;}.cls-4{fill:#ef5a70;}.cls-10,.cls-11,.cls-12,.cls-13,.cls-14,.cls-15,.cls-4,.cls-5,.cls-6,.cls-7,.cls-8,.cls-9{fill-rule:evenodd;}.cls-5{fill:#ed1b25;}.cls-6{fill:#faba1c;}.cls-7{fill:#009e4f;}.cls-8{fill:#00aded;}.cls-9{fill:#c6569e;}.cls-11{fill:#d5d5d7;}.cls-12{fill:#5f5f5f;}.cls-13,.cls-16{fill:#434443;}.cls-14{fill:#22201e;}.cls-15{fill:#babcbe;}</style><clipPath id="clip-path" transform="translate(213 115)"><rect class="cls-1" width="360" height="332"/></clipPath></defs><g id="Capa_2" data-name="Capa 2"><g id="_5" data-name="5"><g class="cls-2"><rect class="cls-3" width="800" height="800"/><path class="cls-4" d="M161.92,68.24l-8.34,79.23,114-51.83a125.38,125.38,0,0,0-105.69-27.4Z" transform="translate(213 115)"/><path class="cls-5" d="M145.55,72.26c-3.4,1.23-6.8,2.54-10.21,4.07a124.61,124.61,0,0,0-67,75l65.29,46.8Z" transform="translate(213 115)"/><path class="cls-6" d="M94.34,273.64l72.77-33L64.36,167a124.42,124.42,0,0,0-2.19,23.17v.15A124,124,0,0,0,73.3,241.63a126.09,126.09,0,0,0,21,32Z" transform="translate(213 115)"/><path class="cls-7" d="M227.32,308.14c3.81-1.32,7.62-2.8,11.32-4.47a124.53,124.53,0,0,0,67.7-77.24l-65.66-45.12Z" transform="translate(213 115)"/><path class="cls-8" d="M211.67,312.37l8.38-79.23L106,285a125.24,125.24,0,0,0,105.64,27.4Z" transform="translate(213 115)"/><path class="cls-9" d="M310.1,210.74,207.45,140.2l72.86-33.13a125.57,125.57,0,0,1,20.33,31.3,124.08,124.08,0,0,1,9.46,72.37Z" transform="translate(213 115)"/><path class="cls-10" d="M140.85,121C72.38,167,105.24,273.54,187,273.54S301.67,167.07,233.17,121a83.36,83.36,0,0,0-92.32,0Z" transform="translate(213 115)"/><path class="cls-11" d="M152.11,137.93c-51.75,34.74-26.9,115.29,34.9,115.29s86.67-80.48,34.88-115.29a63,63,0,0,0-69.78,0Z" transform="translate(213 115)"/><path class="cls-12" d="M159.16,148.52c-41.29,27.72-21.47,92,27.85,92s69.15-64.22,27.83-92a50.24,50.24,0,0,0-55.68,0Z" transform="translate(213 115)"/><path class="cls-13" d="M162.45,153.43C126,177.9,143.5,234.6,187,234.6s61-56.66,24.55-81.17a44.35,44.35,0,0,0-49.11,0Z" transform="translate(213 115)"/><path class="cls-14" d="M173.37,169.85c-20.21,13.57-10.5,45,13.64,45s33.85-31.43,13.62-45a24.62,24.62,0,0,0-27.26,0Z" transform="translate(213 115)"/><path class="cls-15" d="M171.49,182c-9.55-6.42-5-21.28,6.45-21.28s16,14.85,6.44,21.28a11.66,11.66,0,0,1-12.89,0Z" transform="translate(213 115)"/><path class="cls-10" d="M198,214.58a5.71,5.71,0,1,1,6.33,0,5.72,5.72,0,0,1-6.33,0Z" transform="translate(213 115)"/></g><path class="cls-16" d="M386.06,193.06v27.51H366.52V139.49h32.35a37.7,37.7,0,0,1,16.45,3.43,25.82,25.82,0,0,1,11.08,9.74A26.6,26.6,0,0,1,430.33,167q0,11.87-8.49,19t-23.31,7.1Zm0-15.09h12.81q5.67,0,8.66-2.84c2-1.89,3-4.57,3-8a13,13,0,0,0-3.06-9.07,10.83,10.83,0,0,0-8.35-3.46h-13Z" transform="translate(213 115)"/><path class="cls-16" d="M458.22,166.78a18.77,18.77,0,0,1,15.37-7.57q10,0,15,5.9t5.18,17.42v38H475V183q0-4.78-2-7c-1.3-1.51-3.5-2.26-6.62-2.26q-5.79,0-8.19,3.68v43.21H439.46V135h18.76Z" transform="translate(213 115)"/><path class="cls-16" d="M501.88,189.89a35.56,35.56,0,0,1,3.5-16.07A25.16,25.16,0,0,1,515.46,163a30.38,30.38,0,0,1,15.42-3.78q13.54,0,21.33,8.38t7.8,22.8v.66q0,14.1-7.83,22.36T531,221.68q-12.87,0-20.66-7.71t-8.41-20.91Zm18.76,1.16q0,8.35,2.62,12.25a8.71,8.71,0,0,0,7.74,3.9q10,0,10.24-15.42v-1.89q0-16.21-10.36-16.21-9.4,0-10.18,14Z" transform="translate(213 115)"/><path class="cls-16" d="M590.13,145.34v15H600v13h-9.91v27.56c0,2.26.41,3.84,1.22,4.73s2.43,1.34,4.85,1.34a27.8,27.8,0,0,0,4.67-.33v13.41a34.45,34.45,0,0,1-10.57,1.62q-9.69,0-14.31-4.57t-4.63-13.86v-29.9h-7.68v-13h7.68v-15Z" transform="translate(213 115)"/><path class="cls-16" d="M603.38,189.89a35.56,35.56,0,0,1,3.51-16.07A25.16,25.16,0,0,1,617,163a30.38,30.38,0,0,1,15.42-3.78q13.53,0,21.33,8.38t7.79,22.8v.66q0,14.1-7.82,22.36t-21.19,8.27q-12.86,0-20.66-7.71t-8.4-20.91Zm18.76,1.16q0,8.35,2.62,12.25a8.73,8.73,0,0,0,7.74,3.9q10,0,10.25-15.42v-1.89q0-16.21-10.36-16.21-9.4,0-10.19,14Z" transform="translate(213 115)"/><path class="cls-16" d="M720.2,180.7H678.66v39.87h-3V139.49h50.23v3H678.66v35.08H720.2Z" transform="translate(213 115)"/><path class="cls-16" d="M733.62,189.27a35.22,35.22,0,0,1,3.31-15.5,25.49,25.49,0,0,1,9.35-10.72A25,25,0,0,1,760,159.21a24.78,24.78,0,0,1,23,14.31,35,35,0,0,1,3.43,15.42v2.67a35.52,35.52,0,0,1-3.29,15.54,25.34,25.34,0,0,1-9.33,10.69,26.38,26.38,0,0,1-27.33,0A25.34,25.34,0,0,1,737,207.28a34.92,34.92,0,0,1-3.39-15.34Zm3,2.34a31.74,31.74,0,0,0,3,13.78,23.45,23.45,0,0,0,8.3,9.77,21.56,21.56,0,0,0,12.16,3.51,20.88,20.88,0,0,0,16.79-7.74q6.49-7.74,6.49-19.93v-1.73a31.33,31.33,0,0,0-3-13.7,23.85,23.85,0,0,0-8.32-9.82A21.29,21.29,0,0,0,760,162.21a20.85,20.85,0,0,0-16.81,7.85q-6.52,7.86-6.52,19.77Z" transform="translate(213 115)"/><path class="cls-16" d="M817.42,187.05l19.21-26.73h3.78l-21.16,29.34,22.28,30.91h-3.74l-20.43-28.29L797,220.57h-3.73l22.27-30.91-21.16-29.34h3.79Z" transform="translate(213 115)"/><path class="cls-16" d="M495.3,264.66H480.13v15.2h-2.74V247.35h20.14v2.32h-17.4v12.67H495.3Z" transform="translate(213 115)"/><path class="cls-16" d="M527.14,265.37a18.92,18.92,0,0,1-1.55,7.89,11.87,11.87,0,0,1-4.43,5.22,12.17,12.17,0,0,1-6.66,1.83,11.56,11.56,0,0,1-9.2-4.07q-3.51-4.08-3.51-11v-3.35a18.65,18.65,0,0,1,1.58-7.87,11.71,11.71,0,0,1,11.09-7.12,12.22,12.22,0,0,1,6.62,1.81,11.89,11.89,0,0,1,4.43,5.12,18.33,18.33,0,0,1,1.63,7.66Zm-2.75-3.53q0-5.86-2.65-9.2a9.58,9.58,0,0,0-14.51,0q-2.69,3.34-2.69,9.33v3.39c0,3.86.89,6.91,2.68,9.17a8.8,8.8,0,0,0,7.28,3.38,8.71,8.71,0,0,0,7.28-3.34q2.61-3.33,2.61-9.3Z" transform="translate(213 115)"/><path class="cls-16" d="M555.52,249.67H544.38v30.19h-2.75V249.67H530.51v-2.32h25Z" transform="translate(213 115)"/><path class="cls-16" d="M584.17,265.37a18.77,18.77,0,0,1-1.55,7.89,11.81,11.81,0,0,1-4.43,5.22,12.15,12.15,0,0,1-6.66,1.83,11.58,11.58,0,0,1-9.2-4.07q-3.5-4.08-3.5-11v-3.35A18.65,18.65,0,0,1,560.4,254a11.73,11.73,0,0,1,11.09-7.12,12.19,12.19,0,0,1,6.62,1.81,11.89,11.89,0,0,1,4.43,5.12,18.33,18.33,0,0,1,1.63,7.66Zm-2.74-3.53q0-5.86-2.66-9.2a9.58,9.58,0,0,0-14.51,0q-2.68,3.34-2.69,9.33v3.39c0,3.86.9,6.91,2.68,9.17a8.82,8.82,0,0,0,7.28,3.38,8.7,8.7,0,0,0,7.28-3.34q2.63-3.33,2.62-9.3Z" transform="translate(213 115)"/><path class="cls-16" d="M614.57,276a9.23,9.23,0,0,1-4.48,3.17,19.36,19.36,0,0,1-6.82,1.14,12.67,12.67,0,0,1-6.79-1.83,12.16,12.16,0,0,1-4.6-5.18,17.56,17.56,0,0,1-1.66-7.68v-4.11q0-6.76,3.42-10.69a11.58,11.58,0,0,1,9.18-3.92,12.21,12.21,0,0,1,8.08,2.56,10.53,10.53,0,0,1,3.64,7H611.8a8.52,8.52,0,0,0-2.92-5.44,9.38,9.38,0,0,0-6-1.84,8.82,8.82,0,0,0-7.21,3.24c-1.77,2.16-2.66,5.2-2.66,9.14v3.84a16.06,16.06,0,0,0,1.26,6.56,10.06,10.06,0,0,0,3.62,4.42,9.6,9.6,0,0,0,5.42,1.56,15,15,0,0,0,6.09-1.12,6.56,6.56,0,0,0,2.46-1.72v-8.39h-8.73v-2.33h11.48Z" transform="translate(213 115)"/><path class="cls-16" d="M634.51,266.31h-9.45v13.55h-2.77V247.35h10.56q5.21,0,8.13,2.52a9.62,9.62,0,0,1,1.1,12.56,9.36,9.36,0,0,1-4.92,3.3l8.13,13.84v.29h-2.92ZM625.06,264h8.42a7.81,7.81,0,0,0,5.56-2,7.44,7.44,0,0,0-.09-10.45,9.1,9.1,0,0,0-6.14-1.9h-7.75Z" transform="translate(213 115)"/><path class="cls-16" d="M668.94,270.73H654.18l-3.35,9.13H648l12.3-32.51h2.62l12.3,32.51h-2.86ZM655,268.41h13l-6.52-17.71Z" transform="translate(213 115)"/><path class="cls-16" d="M697.86,264.66H682.7v15.2H680V247.35h20.14v2.32H682.7v12.67h15.16Z" transform="translate(213 115)"/><path class="cls-16" d="M710.34,238.4h3.24l-5.16,6.25h-2.34ZM709,279.86h-2.75V247.35H709Z" transform="translate(213 115)"/><path class="cls-16" d="M735.8,270.73H721l-3.35,9.13h-2.88l12.3-32.51h2.62L742,279.86h-2.86Zm-13.91-2.32h13l-6.52-17.71Z" transform="translate(213 115)"/></g></g></svg>